<svg xmlns="http://www.w3.org/2000/svg" viewBox="0 0 1024 1024">
  <path d="M928 160H96c-17.7 0-32 14.3-32 32v640c0 17.7 14.3 32 32 32h832c17.7 0 32-14.3 32-32V192c0-17.7-14.3-32-32-32zm-40 632H136V232h752v560zM610.3 476h123.4c1.3 0 2.3-1 2.3-2.3V392c0-1.3-1-2.3-2.3-2.3H610.3c-1.3 0-2.3 1-2.3 2.3v81.4c0 1.3 1 2.3 2.3 2.3zm4.8 74.1c0-1.3-1-2.3-2.3-2.3h-55c-1.3 0-2.3 1-2.3 2.3v84.7c0 1.3 1 2.3 2.3 2.3h55c1.3 0 2.3-1 2.3-2.3v-84.7zM374.5 392v81.4c0 1.3 1 2.3 2.3 2.3h81.4c1.3 0 2.3-1 2.3-2.3V392c0-1.3-1-2.3-2.3-2.3h-81.4c-1.3 0-2.3 1-2.3 2.3zm192 162.6c0-1.3-1-2.3-2.3-2.3h-55c-1.3 0-2.3 1-2.3 2.3v84.7c0 1.3 1 2.3 2.3 2.3h55c1.3 0 2.3-1 2.3-2.3v-84.7zM544 540.1c0-1.3-1-2.3-2.3-2.3h-81.4c-1.3 0-2.3 1-2.3 2.3V633c0 1.3 1 2.3 2.3 2.3h81.4c1.3 0 2.3-1 2.3-2.3v-92.9z" fill="#889aa4"/>
</svg>